GRF
version=1
nRows=37
nColumns=19
inDegrees=no
endheader
time	ground_force_vx	ground_force_vy	ground_force_vz	ground_force_px	ground_force_py	ground_force_pz	ground_torque_x	ground_torque_y	ground_torque_z	1_ground_force_vx	1_ground_force_vy	1_ground_force_vz	1_ground_force_px	1_ground_force_py	1_ground_force_pz	1_ground_torque_x	1_ground_torque_y	1_ground_torque_z
      3.50000000	     -0.78970751	      0.10888229	      2.77148579	      0.30314179	     -0.00000000	     -0.32965497	     -0.00000000	     -0.27918481	      0.00000000	     60.52731073	    758.36731311	     15.33246761	     -0.09240800	      0.00000000	      0.03231264	      0.00000000	      3.91678919	     -0.00000000
      3.50100000	     -0.84263156	      0.13488212	      2.84804731	      0.30230669	     -0.00000000	     -0.33336122	      0.00000000	      0.00581975	     -0.00000000	     60.45568139	    757.98479719	     15.64443937	     -0.09244194	      0.00000000	      0.03217944	      0.00000000	      3.92623152	     -0.00000000
      3.50200000	     -0.89543755	      0.16128291	      2.92221807	      0.30150241	     -0.00000000	     -0.33568692	      0.00000000	      0.26019406	     -0.00000000	     60.37852459	    757.57880591	     15.94538223	     -0.09247607	      0.00000000	      0.03205700	      0.00000000	      3.93446037	     -0.00000000
      3.50300000	     -0.94768847	      0.18808580	      2.99332648	      0.30072602	     -0.00000000	     -0.33681764	      0.00000000	      0.48675414	     -0.00000000	     60.29638978	    757.14878491	     16.23485637	     -0.09251036	      0.00000000	      0.03194566	      0.00000000	      3.94122835	     -0.00000000
      3.50400000	     -0.99894641	      0.21530748	      3.06070975	      0.29997472	     -0.00000000	     -0.33693186	      0.00000000	      0.68815312	     -0.00000000	     60.20984203	    756.69419417	     16.51245002	     -0.09254477	      0.00000000	      0.03184574	      0.00000000	      3.94629269	     -0.00000000
      3.50500000	     -1.04877837	      0.24298057	      3.12371959	      0.29924580	     -0.00000000	     -0.33620035	      0.00000000	      0.86687666	     -0.00000000	     60.11945246	    756.21450769	     16.77778532	     -0.09257928	      0.00000000	      0.03175749	      0.00000000	      3.94941917	     -0.00000000
      3.50600000	     -1.09676186	      0.27115385	      3.18172778	      0.29853659	     -0.00000000	     -0.33478568	      0.00000000	      1.02524015	     -0.00000000	     60.02578856	    755.70921295	     17.03052408	     -0.09261385	      0.00000000	      0.03168112	      0.00000000	      3.95038608	     -0.00000000
      3.50700000	     -1.14249028	      0.29989209	      3.23413146	      0.29784452	     -0.00000000	     -0.33284178	      0.00000000	      1.16538755	     -0.00000000	     59.92940476	    755.17781005	     17.27037316	     -0.09264848	      0.00000000	      0.03161679	      0.00000000	      3.94898789	     -0.00000000
      3.50800000	     -1.18557796	      0.32927573	      3.28035811	      0.29716703	     -0.00000000	     -0.33051358	      0.00000000	      1.28929177	     -0.00000000	     59.83083332	    754.61981065	     17.49708957	     -0.09268313	      0.00000000	      0.03156459	      0.00000000	      3.94503880	     -0.00000000
      3.50900000	     -1.22566492	      0.35940024	      3.31987021	      0.29650158	     -0.00000000	     -0.32793668	      0.00000000	      1.39875626	     -0.00000000	     59.73057568	    754.03473679	     17.71048513	     -0.09271781	      0.00000000	      0.03152456	      0.00000000	      3.93837603	     -0.00000000
      3.51000000	     -1.26242104	      0.39037537	      3.35216939	      0.29584565	     -0.00000000	     -0.32523717	      0.00000000	      1.49541793	     -0.00000000	     59.62909441	    753.42211962	     17.91043053	     -0.09275249	      0.00000000	      0.03149665	      0.00000000	      3.92886269	     -0.00000000
      3.51100000	     -1.29554986	      0.42232416	      3.37680015	      0.29519672	     -0.00000000	     -0.32253144	      0.00000000	      1.58075100	     -0.00000000	     59.52680591	    752.78149818	     18.09685902	     -0.09278716	      0.00000000	      0.03148078	      0.00000000	      3.91639046	     -0.00000000
      3.51200000	     -1.32479173	      0.45538182	      3.39335296	      0.29455225	     -0.00000000	     -0.31992605	      0.00000000	      1.65607188	     -0.00000000	     59.42407394	    752.11241826	     18.26976924	     -0.09282183	      0.00000000	      0.03147676	      0.00000000	      3.90088173	     -0.00000000
      3.51300000	     -1.34992645	      0.48969452	      3.40146685	      0.29390969	     -0.00000000	     -0.31751770	      0.00000000	      1.72254478	     -0.00000000	     59.32120406	    751.41443148	     18.42922758	     -0.09285649	      0.00000000	      0.03148437	      0.00000000	      3.88229143	     -0.00000000
      3.51400000	     -1.37077528	      0.52541819	      3.40083134	      0.29326647	     -0.00000000	     -0.31539320	      0.00000000	      1.78118808	     -0.00000000	     59.21843916	    750.68709449	     18.57536975	     -0.09289112	      0.00000000	      0.03150328	      0.00000000	      3.86060834	     -0.00000000
      3.51500000	     -1.38720223	      0.56271721	      3.39118765	      0.29262001	     -0.00000000	     -0.31362950	      0.00000000	      1.83288120	     -0.00000000	     59.11595598	    749.92996861	     18.70840156	     -0.09292574	      0.00000000	      0.03153313	      0.00000000	      3.83585598	     -0.00000000
      3.51600000	     -1.39911487	      0.60176325	      3.37232936	      0.29196770	     -0.00000000	     -0.31229379	      0.00000000	      1.87837204	     -0.00000000	     59.01386284	    749.14261968	     18.82859904	     -0.09296032	      0.00000000	      0.03157347	      0.00000000	      3.80809297	     -0.00000000
      3.51700000	     -1.40646432	      0.64273409	      3.34410223	      0.29130693	     -0.00000000	     -0.31144358	      0.00000000	      1.91828475	     -0.00000000	     58.91219856	    748.32461841	     18.93630774	     -0.09299488	      0.00000000	      0.03162378	      0.00000000	      3.77741300	     -0.00000000
      3.51800000	     -1.40924474	      0.68581264	      3.30640349	      0.29063509	     -0.00000000	     -0.31112689	      0.00000000	      1.95312781	     -0.00000000	     58.81093242	    747.47554108	     19.03194130	     -0.09302939	      0.00000000	      0.03168350	      0.00000000	      3.74394420	     -0.00000000
      3.51900000	     -1.40749211	      0.73118613	      3.25918030	      0.28994955	     -0.00000000	     -0.31138242	      0.00000000	      1.98330241	     -0.00000000	     58.70996549	    746.59497066	     19.11597925	     -0.09306387	      0.00000000	      0.03175197	      0.00000000	      3.70784814	     -0.00000000
      3.52000000	     -1.40128247	      0.77904541	      3.20242763	      0.28924772	     -0.00000000	     -0.31223977	      0.00000000	      2.00911088	     -0.00000000	     58.60913295	    745.68249840	     19.18896411	     -0.09309831	      0.00000000	      0.03182852	      0.00000000	      3.66931832	     -0.00000000
      3.52100000	     -1.39072961	      0.82958458	      3.13618553	      0.28852703	     -0.00000000	     -0.31371968	      0.00000000	      2.03076532	     -0.00000000	     58.50820760	    744.73772582	     19.25149781	     -0.09313270	      0.00000000	      0.03191239	      0.00000000	      3.62857822	     -0.00000000
      3.52200000	     -1.37598221	      0.88300086	      3.06053571	      0.28778494	     -0.00000000	     -0.31583436	      0.00000000	      2.04839614	     -0.00000000	     58.40690440	    743.76026713	     19.30423745	     -0.09316702	      0.00000000	      0.03200279	      0.00000000	      3.58587901	     -0.00000000
      3.52300000	     -1.35722055	      0.93949467	      2.97559764	      0.28701896	     -0.00000000	     -0.31858772	      0.00000000	      2.06206071	     -0.00000000	     58.30488598	    742.74975189	     19.34789051	     -0.09320129	      0.00000000	      0.03209888	      0.00000000	      3.54149675	     -0.00000000
      3.52400000	     -1.33465276	      0.99927008	      2.88152417	      0.28622667	     -0.00000000	     -0.32197578	      0.00000000	      2.07175182	     -0.00000000	     58.20176905	    741.70582818	     19.38320950	     -0.09323549	      0.00000000	      0.03219979	      0.00000000	      3.49572943	     -0.00000000
      3.52500000	     -1.30851084	      1.06253551	      2.77849666	      0.28540573	     -0.00000000	     -0.32598698	      0.00000000	      2.07740611	     -0.00000000	     58.09713155	    740.62816581	     19.41098618	     -0.09326962	      0.00000000	      0.03230462	      0.00000000	      3.44889353	     -0.00000000
      3.52600000	     -1.27904624	      1.12950478	      2.66671977	      0.28455388	     -0.00000000	     -0.33060259	      0.00000000	      2.07891230	     -0.00000000	     57.99052051	    739.51645985	     19.43204537	     -0.09330367	      0.00000000	      0.03241243	      0.00000000	      3.40132049	     -0.00000000
      3.52700000	     -1.24652537	      1.20039841	      2.54641598	      0.28366896	     -0.00000000	     -0.33579709	      0.00000000	      2.07611918	     -0.00000000	     57.88146045	    738.37043424	     19.44723850	     -0.09333764	      0.00000000	      0.03252228	      0.00000000	      3.35335287	     -0.00000000
      3.52800000	     -1.21122487	      1.27544522	      2.41781987	      0.28274891	     -0.00000000	     -0.34153861	      0.00000000	      2.06884347	     -0.00000000	     57.76946213	    737.18984534	     19.45743689	     -0.09337152	      0.00000000	      0.03263321	      0.00000000	      3.30534038	     -0.00000000
      3.52900000	     -1.17342685	      1.35488427	      2.28117228	      0.28179180	     -0.00000000	     -0.34778936	      0.00000000	      2.05687735	     -0.00000000	     57.65403162	    735.97448556	     19.46352488	     -0.09340533	      0.00000000	      0.03274427	      0.00000000	      3.25763587	     -0.00000000
      3.53000000	     -1.13341410	      1.43896698	      2.13671441	      0.28079582	     -0.00000000	     -0.35450609	      0.00000000	      2.03999567	     -0.00000000	     57.53467947	    734.72418670	     19.46639293	     -0.09343905	      0.00000000	      0.03285450	      0.00000000	      3.21059120	     -0.00000000
      3.53100000	     -1.09146545	      1.52795954	      1.98468198	      0.27975930	     -0.00000000	     -0.36164056	      0.00000000	      2.01796292	     -0.00000000	     57.41092988	    733.43882316	     19.46693073	     -0.09347269	      0.00000000	      0.03296297	      0.00000000	      3.16455315	     -0.00000000
      3.53200000	     -1.04785116	      1.62214551	      1.82529945	      0.27868069	     -0.00000000	     -0.36914006	      0.00000000	      1.99053983	     -0.00000000	     57.28232969	    732.11831475	     19.46602038	     -0.09350627	      0.00000000	      0.03306875	      0.00000000	      3.11985942	     -0.00000000
      3.53300000	     -1.00282860	      1.72182860	      1.65877454	      0.27755859	     -0.00000000	     -0.37694784	      0.00000000	      1.95748958	     -0.00000000	     57.14845704	    730.76262917	     19.46452973	     -0.09353980	      0.00000000	      0.03317096	      0.00000000	      3.07683465	     -0.00000000
      3.53400000	     -0.95663820	      1.82733564	      1.48529288	      0.27639174	     -0.00000000	     -0.38500369	      0.00000000	      1.91858369	     -0.00000000	     57.00892966	    729.37178402	     19.46330604	     -0.09357328	      0.00000000	      0.03326875	      0.00000000	      3.03578675	     -0.00000000
      3.53500000	     -0.90949967	      1.93901963	      1.30501316	      0.27517901	     -0.00000000	     -0.39324441	      0.00000000	      1.87360747	     -0.00000000	     56.86341251	    727.94584819	     19.46316984	     -0.09360674	      0.00000000	      0.03336131	      0.00000000	      2.99700332	     -0.00000000
      3.53600000	     -0.86160868	      2.05726290	      1.11806263	      0.27391941	     -0.00000000	     -0.40160435	      0.00000000	      1.82236509	     -0.00000000	     56.71162479	    726.48494280	     19.46490921	     -0.09364019	      0.00000000	      0.03344790	      0.00000000	      2.96074835	     -0.00000000
